# xmcd
#
# Track frame offsets: 
#        150
#        14043
#        29364
#        41335
#        53436
#        66359
#        86054
#        95294
#        108992
#        120378
#        130733
#        141583
#        160353
#
# Disc length: 4290 seconds
#
# Revision: 0
# Processed by: cddbd v1.5.2PL0 Copyright (c) Steve Scherf et al.
# Submitted via: ExactAudioCopy v1.0b4
#
DISCID=ad10c00d
DTITLE=Chicken Shack - Accept Chicken Shack (LP)
DYEAR=1970
DGENRE=Blues
TTITLE0=Diary Of Your Life
TTITLE1=Pocket
TTITLE2=Never Ever
TTITLE3=Sad Clown
TTITLE4=Maudie
TTITLE5=Telling Your Fortune
TTITLE6=Tired Eyes
TTITLE7=Some Other Time
TTITLE8=Going Round
TTITLE9=Andalucian Blues
TTITLE10=You Know You Did You Did
TTITLE11=She Didn' t Use Her Loaf
TTITLE12=Accept Chicken Shack (LP)
EXTD=
EXTT0=
EXTT1=
EXTT2=
EXTT3=
EXTT4=
EXTT5=
EXTT6=
EXTT7=
EXTT8=
EXTT9=
EXTT10=
EXTT11=
EXTT12=
PLAYORDER=
